# xmcd CD database file
#
# Track frame offsets:
#	150
#	22887
#	43270
#	63602
#	84747
#	103119
#	122049
#	146806
#	164004
#	185033
#	199136
#	215465
#	244518
#	270031
#
# Disc length: 4251 seconds
#
# Revision: 0
# Processed by: cddbd v1.5.2PL0 Copyright (c) Steve Scherf et al.
# Submitted via: CDex 1.70beta2
#
DISCID=cf10990e
DTITLE=Apache - PanFlute Romance
DYEAR=2010
DGENRE=New Age
TTITLE0=El tren que nos Separa
TTITLE1=El pastor solotario
TTITLE2=My heart will go on
TTITLE3=Sonido del solencio
TTITLE4=Let it be
TTITLE5=I know lim so well
TTITLE6=Power of love
TTITLE7=Sailing
TTITLE8=Angel
TTITLE9=Imagin
TTITLE10=Unchainded Melody
TTITLE11=Romeo and Juliet
TTITLE12=El condor pasa
TTITLE13=Llakiluna
EXTD=YEAR: 2010
EXTT0=
EXTT1=
EXTT2=
EXTT3=
EXTT4=
EXTT5=
EXTT6=
EXTT7=
EXTT8=
EXTT9=
EXTT10=
EXTT11=
EXTT12=
EXTT13=
PLAYORDER=
